<svg width="35" height="25" viewBox="0 0 35 25" fill="none" xmlns="http://www.w3.org/2000/svg">
<path fill-rule="evenodd" clip-rule="evenodd" d="M16 0L11.0189 10.994C13.283 12.3494 14.3396 14.759 14.3396 17.4699C14.3396 21.8373 11.3208 25 7.24528 25C3.32075 25 0 22.1386 0 17.3193C0 14.9096 0.90566 12.9518 2.26415 10.8434L9.35849 0H16ZM35 0L30.0189 10.994C32.283 12.3494 33.3396 14.759 33.3396 17.4699C33.3396 21.8373 30.3208 25 26.2453 25C22.3208 25 19 22.1386 19 17.3193C19 14.9096 19.9057 12.9518 21.2642 10.8434L28.3585 0H35Z" fill="#F05D7B"/>
</svg>
